<svg width="40" height="40" viewBox="0 0 40 40" fill="none" xmlns="http://www.w3.org/2000/svg">
<path d="M10.9149 17H1.09587C0.493143 17 0 17.478 0 18.0622V28.8649C0 33.9105 4.21912 38 9.42452 38H10.9039C11.5067 38 11.9998 37.522 11.9998 36.9378V18.0622C12.0108 17.478 11.5176 17 10.9149 17Z" fill="#004BFC"/>
<path d="M24.9051 11H15.0949C14.4927 11 14 11.4785 14 12.0634V36.9366C14 37.5215 14.4927 38 15.0949 38H24.9051C25.5073 38 26 37.5215 26 36.9366V12.0634C26 11.4785 25.5073 11 24.9051 11Z" fill="#0897FE"/>
<path d="M38.9051 2H29.0949C28.4927 2 28 2.48503 28 3.07784V36.9222C28 37.515 28.4927 38 29.0949 38H38.9051C39.5073 38 40 37.515 40 36.9222V3.07784C40 2.47425 39.5073 2 38.9051 2Z" fill="#6FC5ED"/>
</svg>
