<?xml version="1.0" encoding="UTF-8"?>
<svg xmlns="http://www.w3.org/2000/svg" version="1.1" xmlns:xlink="http://www.w3.org/1999/xlink" viewBox="0 0 51.5 84.6">
  <defs>
    <style>
      .cls-1 {
        fill: #192535;
      }

      .cls-2 {
        fill: url(#_무제_그라디언트_2);
      }

      .cls-3 {
        fill: url(#_무제_그라디언트_2-2);
      }

      .cls-4 {
        fill: #2f609c;
      }
    </style>
    <linearGradient id="_무제_그라디언트_2" data-name="무제 그라디언트 2" x1="6.8" y1="79.2" x2="40.8" y2="79.2" gradientUnits="userSpaceOnUse">
      <stop offset="0" stop-color="#3166a7"/>
      <stop offset="1" stop-color="#3269ab"/>
    </linearGradient>
    <linearGradient id="_무제_그라디언트_2-2" data-name="무제 그라디언트 2" x1="43.8" y1="75.4" x2="50.3" y2="75.4" xlink:href="#_무제_그라디언트_2"/>
  </defs>
  <!-- Generator: Adobe Illustrator 28.7.5, SVG Export Plug-In . SVG Version: 1.2.0 Build 176)  -->
  <g>
    <g id="_레이어_1" data-name="레이어_1">
      <g>
        <g>
          <g>
            <path class="cls-4" d="M26,24.5l6.1,6.8s4.2-4.2,4.2-4.5-6.2-6.8-6.2-6.8l6.4-6.4c-.8-.6-3.5-4.4-3.7-4.4s-6.5,6.1-6.5,6.1c0,0-6-6.1-6.3-6.1-.4,0-2.6,2.2-5.3,5.2-2.8,3.2-5.1,5.9-8.3,10.5-3.2,4.8-5.4,9.3-5.2,14.9.6,12.7,8.3,18.2,10.6,19.7,2.9,2,4.5,2.7,7.5,3.5,3.2.9,5.9.9,5.9.9v-6s-3.1,0-5.4-.8c-2.6-.9-4.7-1.8-7.3-4.5-2.5-2.6-5.2-6.5-5.3-12.6-.1-6.7,5-13.4,6.1-15,2.6-3.6,6.6-7.5,6.6-7.5l2.2,1.9s-5.1,5.1-7.2,8c-2.4,3.3-5.2,7.9-5.1,13,.2,6.1,4.2,10,6.9,11.9,3.5,2.4,8.4,2.7,8.4,2.7v-5.9s-8.5-.9-8.8-9c-.2-6.8,9.7-15.5,9.7-15.5Z"/>
            <path class="cls-1" d="M48.1,29.4c-2.3-4.4-5.2-7.8-5.9-8.7-1.1-1.4-4.4-4.9-4.4-4.9l-4.2,4.1s5.3,5.6,7.1,8.7c1.6,2.6,3.9,6.5,3.8,11,0,5-1.6,8.5-3.6,11-2.6,3.2-4.2,4.4-7.4,5.9-2.9,1.3-6.8,1.5-6.8,1.5v6s2.1,0,4.9-.7c3.7-.9,6.7-2.2,10.9-5.6,2.4-2,4.8-5.4,6.2-8.5.9-2,1.9-5.6,1.9-9.5s-.6-6.8-2.5-10.2Z"/>
          </g>
          <polygon class="cls-1" points="31.4 6.9 26.3 11.8 21.2 6.9 26.3 1.1 31.4 6.9"/>
        </g>
        <path class="cls-2" d="M8.9,84l-2.1-9.5h2.4l1.4,6.8h.1l1.5-6.8h2.5l1.6,6.8h.1l1.3-6.8h2.4l-2.1,9.5h-3l-1.5-6h0l-1.4,6h-3ZM21.2,84v-9.5h2.4v9.5h-2.4ZM29.1,84.1c-.4,0-.8,0-1.2,0-.4,0-.8,0-1.3,0-.4,0-.8,0-1.1-.1v-1.8c.3,0,.7,0,1,0,.4,0,.7,0,1,0,.3,0,.6,0,.8,0,.4,0,.8,0,1,0,.2,0,.4,0,.5-.2,0,0,.1-.1.2-.2,0,0,0-.2,0-.3,0-.1,0-.2,0-.3,0-.2,0-.3,0-.5,0-.1,0-.2-.1-.3,0,0-.2-.1-.3-.1-.1,0-.3,0-.5,0l-2-.2c-.4,0-.7-.1-.9-.3-.2-.1-.4-.3-.6-.6-.1-.2-.2-.5-.3-.8,0-.3,0-.7,0-1.1,0-.6,0-1.1.3-1.5.2-.4.4-.7.8-.9.3-.2.7-.3,1.1-.4.4,0,.9,0,1.4,0s.8,0,1.1,0c.4,0,.8,0,1.1,0,.4,0,.6,0,.9.1v1.7c-.2,0-.5,0-.8,0-.3,0-.6,0-1,0-.3,0-.6,0-.9,0s-.6,0-.9,0c-.2,0-.4,0-.5.1-.1,0-.2.2-.2.3,0,.1,0,.3,0,.5s0,.4,0,.5c0,.1.1.2.2.2.1,0,.3,0,.6.1l1.9.2c.3,0,.5,0,.7.1.2,0,.4.2.6.3.2.1.3.3.5.6,0,.1.1.3.2.4,0,.2,0,.4,0,.6,0,.2,0,.5,0,.7,0,.5,0,1-.2,1.4-.1.4-.3.7-.5.9-.2.2-.4.4-.7.5-.3.1-.6.2-1,.2-.3,0-.7,0-1.1,0ZM34.2,84v-9.5h6.7v1.9h-4.3v2h3.6v1.8h-3.6v2h4.3v1.9h-6.7Z"/>
      </g>
      <path class="cls-3" d="M46.2,72.2v2.3h-2.3v1.9h2.3v2.3h1.9v-2.3h2.3v-1.9h-2.3v-2.3h-1.9Z"/>
    </g>
  </g>
</svg>