<svg width="40" height="40" viewBox="0 0 40 40" fill="none" xmlns="http://www.w3.org/2000/svg">
<path d="M12.5 14C13.3284 14 14 13.3284 14 12.5C14 11.6716 13.3284 11 12.5 11C11.6716 11 11 11.6716 11 12.5C11 13.3284 11.6716 14 12.5 14Z" fill="#086EF2"/>
<path d="M17.5 14C18.3284 14 19 13.3284 19 12.5C19 11.6716 18.3284 11 17.5 11C16.6716 11 16 11.6716 16 12.5C16 13.3284 16.6716 14 17.5 14Z" fill="#086EF2"/>
<path d="M30.65 20H10.35C7.943 20 6 21.876 6 24.2V29.8C6 32.124 7.943 34 10.35 34H30.65C33.057 34 35 32.124 35 29.8V24.2C35 21.876 33.057 20 30.65 20ZM17.6 28.4H11.8C11.0025 28.4 10.35 27.77 10.35 27C10.35 26.23 11.0025 25.6 11.8 25.6H17.6C18.3975 25.6 19.05 26.23 19.05 27C19.05 27.77 18.3975 28.4 17.6 28.4ZM23.4 28.4C22.6025 28.4 21.95 27.77 21.95 27C21.95 26.23 22.6025 25.6 23.4 25.6C24.1975 25.6 24.85 26.23 24.85 27C24.85 27.77 24.1975 28.4 23.4 28.4ZM29.2 28.4C28.4025 28.4 27.75 27.77 27.75 27C27.75 26.23 28.4025 25.6 29.2 25.6C29.9975 25.6 30.65 26.23 30.65 27C30.65 27.77 29.9975 28.4 29.2 28.4Z" fill="#086EF2"/>
<path d="M23.3333 11H28.6667C29.4 11 30 11.675 30 12.5C30 13.325 29.4 14 28.6667 14H23.3333C22.6 14 22 13.325 22 12.5C22 11.675 22.6 11 23.3333 11Z" fill="#086EF2"/>
<path d="M30.3636 20.7998H10.6364C7.52227 20.7998 5 18.264 5 15.1331V9.46647C5 6.33564 7.52227 3.7998 10.6364 3.7998H30.3636C33.4777 3.7998 36 6.33564 36 9.46647V15.1331C36 18.264 33.4777 20.7998 30.3636 20.7998ZM10.6364 6.63314C9.08636 6.63314 7.81818 7.90814 7.81818 9.46647V15.1331C7.81818 16.6915 9.08636 17.9665 10.6364 17.9665H30.3636C31.9136 17.9665 33.1818 16.6915 33.1818 15.1331V9.46647C33.1818 7.90814 31.9136 6.63314 30.3636 6.63314H10.6364Z" fill="#086EF2"/>
<path d="M30.3636 35H10.6364C7.52227 35 5 32.4642 5 29.3333V23.6667C5 20.5358 7.52227 18 10.6364 18H30.3636C33.4777 18 36 20.5358 36 23.6667V29.3333C36 32.4642 33.4777 35 30.3636 35ZM10.6364 20.8333C9.08636 20.8333 7.81818 22.1083 7.81818 23.6667V29.3333C7.81818 30.8917 9.08636 32.1667 10.6364 32.1667H30.3636C31.9136 32.1667 33.1818 30.8917 33.1818 29.3333V23.6667C33.1818 22.1083 31.9136 20.8333 30.3636 20.8333H10.6364Z" fill="#086EF2"/>
</svg>
