<svg width="40" height="40" viewBox="0 0 40 40" fill="none" xmlns="http://www.w3.org/2000/svg">
<g clip-path="url(#clip0_634_4711)">
<path fill-rule="evenodd" clip-rule="evenodd" d="M30.1504 27.5736C30.1504 27.876 29.904 28.1224 29.6016 28.1224C29.2992 28.1224 29.0528 27.876 29.0528 27.5736V25.202C29.0528 24.8996 29.2992 24.6532 29.6016 24.6532C29.904 24.6532 30.1504 24.8996 30.1504 25.202V27.5736ZM30.1504 29.7576C30.1504 30.06 29.904 30.3064 29.6016 30.3064C29.2992 30.3064 29.0528 30.06 29.0528 29.7576V29.0968C29.0528 28.7944 29.2992 28.548 29.6016 28.548C29.904 28.548 30.1504 28.7944 30.1504 29.0968V29.7576ZM29.6044 22.2004C26.628 22.2004 24.2088 24.6224 24.2088 27.6016C24.2088 30.5808 26.6308 33.0028 29.6044 33.0028C32.578 33.0028 35 30.5808 35 27.6016C35 24.6224 32.578 22.2004 29.6044 22.2004ZM26.5608 6.218C24.4216 5.4312 21.5852 5 18.5752 5C15.5652 5 12.7316 5.4312 10.5896 6.218C8.274 7.0664 7 8.262 7 9.5892C7 10.9164 8.274 12.112 10.5896 12.9604C12.7316 13.7444 15.568 14.1784 18.5752 14.1784C21.5824 14.1784 24.4188 13.7472 26.5608 12.9604C28.8764 12.112 30.1504 10.9136 30.1504 9.5892C30.1504 8.2648 28.8764 7.0664 26.5608 6.218ZM10.1528 18.6444C12.3928 19.5908 15.386 20.1144 18.578 20.1144C21.77 20.1144 24.7604 19.5936 27.0032 18.6444C28.7308 17.9136 29.8424 16.9896 30.156 16.046V12.0532C29.5008 12.686 28.5852 13.26 27.4316 13.7472C25.0572 14.7496 21.9156 15.304 18.5808 15.304C15.246 15.304 12.1044 14.7524 9.73 13.7472C8.5708 13.2572 7.6552 12.6832 7 12.0504V16.0432C7.3136 16.9868 8.4224 17.9108 10.15 18.6416M29.6044 21.1C29.7892 21.1 29.9712 21.1084 30.1532 21.1224V17.9584C29.498 18.5912 28.5824 19.1652 27.4288 19.6524C25.0544 20.6548 21.9128 21.2064 18.578 21.2064C15.2432 21.2064 12.0988 20.6548 9.7272 19.6524C8.5708 19.168 7.6552 18.594 7 17.9612V21.954C7.3136 22.8976 8.4224 23.8216 10.15 24.5524C12.39 25.4988 15.3832 26.0224 18.5752 26.0224C20.2776 26.0224 21.9212 25.874 23.4276 25.5912C24.276 22.9872 26.7232 21.1 29.6044 21.1ZM23.1084 27.5988C23.1084 27.3104 23.128 27.0276 23.1644 26.7504C21.7196 26.9912 20.1712 27.12 18.5752 27.12C15.2404 27.12 12.0988 26.5684 9.7244 25.5632C8.5708 25.076 7.6552 24.5048 7 23.872V27.1564C7 28.4808 8.274 29.6792 10.5896 30.5248C12.7316 31.3088 15.568 31.7428 18.5752 31.7428C20.6024 31.7428 22.5232 31.5636 24.2144 31.2248C23.5172 30.1888 23.1084 28.94 23.1084 27.5988Z" fill="url(#paint0_linear_634_4711)"/>
</g>
<defs>
<linearGradient id="paint0_linear_634_4711" x1="21" y1="5" x2="21" y2="33.0028" gradientUnits="userSpaceOnUse">
<stop stop-color="#13E08E"/>
<stop offset="1" stop-color="#006BCD"/>
</linearGradient>
<clipPath id="clip0_634_4711">
<rect width="28" height="28" fill="white" transform="translate(7 5)"/>
</clipPath>
</defs>
</svg>
